<svg baseProfile="full" height="180" version="1.1" width="220" xmlns="http://www.w3.org/2000/svg" xmlns:ev="http://www.w3.org/2001/xml-events" xmlns:xlink="http://www.w3.org/1999/xlink"><defs /><text style="font-size:20.0px;font-family:Courier" x="4.25" y="12.5">.</text><text style="font-size:20.0px;font-family:Courier" x="44.25" y="12.5">.</text><text style="font-size:20.0px;font-family:Courier" x="84.25" y="12.5">.</text><text style="font-size:20.0px;font-family:Courier" x="124.25" y="12.5">.</text><text style="font-size:20.0px;font-family:Courier" x="164.25" y="12.5">.</text><text style="font-size:20.0px;font-family:Courier" x="204.25" y="12.5">.</text><text style="font-size:20.0px;font-family:Courier" x="4.25" y="52.5">.</text><text style="font-size:20px;font-family:Courier;font-weight:normal;fill:black" x="44.5" y="55.0">E</text><line stroke="rgb(10%,10%,16%)" style="stroke-width:2.0" x1="65.0" x2="75.0" y1="50.0" y2="50.0" /><text style="font-size:20px;font-family:Courier;font-weight:normal;fill:black" x="84.5" y="55.0">V</text><line stroke="rgb(10%,10%,16%)" style="stroke-width:2.0" x1="105.0" x2="115.0" y1="50.0" y2="50.0" /><text style="font-size:20px;font-family:Courier;font-weight:normal;fill:black" x="124.5" y="55.0">R</text><line stroke="rgb(10%,10%,16%)" style="stroke-width:2.0" x1="145.0" x2="155.0" y1="50.0" y2="50.0" /><text style="font-size:20px;font-family:Courier;font-weight:normal;fill:black" x="164.5" y="55.0">A</text><text style="font-size:20.0px;font-family:Courier" x="204.25" y="52.5">.</text><line stroke="rgb(10%,10%,16%)" style="stroke-width:2.0" x1="50.0" x2="50.0" y1="65.0" y2="75.0" /><line stroke="rgb(10%,10%,16%)" style="stroke-width:2.0" x1="170.0" x2="170.0" y1="75.0" y2="65.0" /><text style="font-size:20.0px;font-family:Courier" x="4.25" y="92.5">.</text><text style="font-size:20px;font-family:Courier;font-weight:normal;fill:black" x="44.5" y="95.0">L</text><text style="font-size:20px;font-family:Courier;font-weight:normal;fill:black" x="84.5" y="95.0">F</text><text style="font-size:20px;font-family:Courier;font-weight:normal;fill:black" x="124.5" y="95.0">F</text><line stroke="rgb(10%,10%,16%)" style="stroke-width:2.0" x1="155.0" x2="145.0" y1="90.0" y2="90.0" /><text style="font-size:20px;font-family:Courier;font-weight:normal;fill:black" x="164.5" y="95.0">H</text><text style="font-size:20.0px;font-family:Courier" x="204.25" y="92.5">.</text><line stroke="rgb(10%,10%,16%)" style="stroke-width:2.0" x1="90.0" x2="90.0" y1="105.0" y2="115.0" /><line stroke="rgb(10%,10%,16%)" style="stroke-width:2.0" x1="130.0" x2="130.0" y1="115.0" y2="105.0" /><text style="font-size:20.0px;font-family:Courier" x="4.25" y="132.5">.</text><text style="font-size:20.0px;font-family:Courier" x="44.25" y="132.5">.</text><text style="font-size:20px;font-family:Courier;font-weight:normal;fill:black" x="84.5" y="135.0">G</text><line stroke="rgb(10%,10%,16%)" style="stroke-width:2.0" x1="115.0" x2="105.0" y1="130.0" y2="130.0" /><text style="font-size:20px;font-family:Courier;font-weight:normal;fill:black" x="124.5" y="135.0">K</text><text style="font-size:20.0px;font-family:Courier" x="164.25" y="132.5">.</text><text style="font-size:20.0px;font-family:Courier" x="204.25" y="132.5">.</text><text style="font-size:20.0px;font-family:Courier" x="4.25" y="172.5">.</text><text style="font-size:20.0px;font-family:Courier" x="44.25" y="172.5">.</text><text style="font-size:20.0px;font-family:Courier" x="84.25" y="172.5">.</text><text style="font-size:20.0px;font-family:Courier" x="124.25" y="172.5">.</text><text style="font-size:20.0px;font-family:Courier" x="164.25" y="172.5">.</text><text style="font-size:20.0px;font-family:Courier" x="204.25" y="172.5">.</text></svg>